<svg id="visual" viewBox="0 0 900 600" width="900" height="600" xmlns="http://www.w3.org/2000/svg" xmlns:xlink="http://www.w3.org/1999/xlink" version="1.1"><rect x="0" y="0" width="900" height="600" fill="#f4f4f4"></rect><defs><linearGradient id="grad1_0" x1="33.3%" y1="0%" x2="100%" y2="100%"><stop offset="20%" stop-color="#f4f4f4" stop-opacity="1"></stop><stop offset="80%" stop-color="#f4f4f4" stop-opacity="1"></stop></linearGradient></defs><defs><linearGradient id="grad2_0" x1="0%" y1="0%" x2="66.7%" y2="100%"><stop offset="20%" stop-color="#f4f4f4" stop-opacity="1"></stop><stop offset="80%" stop-color="#f4f4f4" stop-opacity="1"></stop></linearGradient></defs><g transform="translate(900, 0)"><path d="M0 324.5C-43.8 322.1 -87.6 319.7 -124.2 299.8C-160.8 279.8 -190.3 242.3 -205.8 205.8C-221.3 169.2 -222.8 133.6 -240.2 99.5C-257.7 65.4 -291.1 32.7 -324.5 0L0 0Z" fill="#F2DA5E"></path></g><g transform="translate(0, 600)"><path d="M0 -324.5C44.9 -323.1 89.8 -321.8 124.2 -299.8C158.5 -277.8 182.3 -235.3 199.4 -199.4C216.5 -163.5 226.9 -134.3 246.7 -102.2C266.4 -70.1 295.5 -35 324.5 0L0 0Z" fill="#F2DA5E"></path></g></svg>